<svg xmlns="http://www.w3.org/2000/svg" width="852" height="6" viewBox="0 0 852 6">
    <g data-name="Group 41" transform="translate(-563 -1235)">
        <circle data-name="Ellipse 1" cx="3" cy="3" r="3" transform="translate(563 1235)" style="fill:#cba37b"/>
        <circle data-name="Ellipse 2" cx="3" cy="3" r="3" transform="translate(597 1235)" style="fill:#cba37b"/>
        <circle data-name="Ellipse 3" cx="3" cy="3" r="3" transform="translate(631 1235)" style="fill:#cba37b"/>
        <circle data-name="Ellipse 4" cx="3" cy="3" r="3" transform="translate(665 1235)" style="fill:#cba37b"/>
        <circle data-name="Ellipse 5" cx="3" cy="3" r="3" transform="translate(698 1235)" style="fill:#cba37b"/>
        <circle data-name="Ellipse 6" cx="3" cy="3" r="3" transform="translate(732 1235)" style="fill:#cba37b"/>
        <circle data-name="Ellipse 7" cx="3" cy="3" r="3" transform="translate(766 1235)" style="fill:#cba37b"/>
        <circle data-name="Ellipse 8" cx="3" cy="3" r="3" transform="translate(800 1235)" style="fill:#cba37b"/>
        <circle data-name="Ellipse 9" cx="3" cy="3" r="3" transform="translate(834 1235)" style="fill:#cba37b"/>
        <circle data-name="Ellipse 10" cx="3" cy="3" r="3" transform="translate(868 1235)" style="fill:#cba37b"/>
        <circle data-name="Ellipse 11" cx="3" cy="3" r="3" transform="translate(901 1235)" style="fill:#cba37b"/>
        <circle data-name="Ellipse 12" cx="3" cy="3" r="3" transform="translate(935 1235)" style="fill:#cba37b"/>
        <circle data-name="Ellipse 13" cx="3" cy="3" r="3" transform="translate(969 1235)" style="fill:#cba37b"/>
        <circle data-name="Ellipse 1" cx="3" cy="3" r="3" transform="translate(1003 1235)" style="fill:#cba37b"/>
        <circle data-name="Ellipse 2" cx="3" cy="3" r="3" transform="translate(1037 1235)" style="fill:#cba37b"/>
        <circle data-name="Ellipse 3" cx="3" cy="3" r="3" transform="translate(1071 1235)" style="fill:#cba37b"/>
        <circle data-name="Ellipse 4" cx="3" cy="3" r="3" transform="translate(1104 1235)" style="fill:#cba37b"/>
        <circle data-name="Ellipse 5" cx="3" cy="3" r="3" transform="translate(1138 1235)" style="fill:#cba37b"/>
        <circle data-name="Ellipse 6" cx="3" cy="3" r="3" transform="translate(1172 1235)" style="fill:#cba37b"/>
        <circle data-name="Ellipse 7" cx="3" cy="3" r="3" transform="translate(1206 1235)" style="fill:#cba37b"/>
        <circle data-name="Ellipse 8" cx="3" cy="3" r="3" transform="translate(1240 1235)" style="fill:#cba37b"/>
        <circle data-name="Ellipse 9" cx="3" cy="3" r="3" transform="translate(1274 1235)" style="fill:#cba37b"/>
        <circle data-name="Ellipse 10" cx="3" cy="3" r="3" transform="translate(1307 1235)" style="fill:#cba37b"/>
        <circle data-name="Ellipse 11" cx="3" cy="3" r="3" transform="translate(1341 1235)" style="fill:#cba37b"/>
        <circle data-name="Ellipse 12" cx="3" cy="3" r="3" transform="translate(1375 1235)" style="fill:#cba37b"/>
        <circle data-name="Ellipse 13" cx="3" cy="3" r="3" transform="translate(1409 1235)" style="fill:#cba37b"/>
    </g>
</svg>
